<?xml version="1.0" encoding="UTF-8"?>
<svg width="233px" height="56px" viewBox="0 0 233 56" version="1.1" xmlns="http://www.w3.org/2000/svg" xmlns:xlink="http://www.w3.org/1999/xlink">
    <title>logo</title>
    <defs>
        <polygon id="path-1" points="0 55.9999869 232.999961 55.9999869 232.999961 0 0 0"></polygon>
    </defs>
    <g id="Page-1" stroke="none" stroke-width="1" fill="none" fill-rule="evenodd">
        <g id="oxla" transform="translate(-160.000000, -72.000000)">
            <g id="logo" transform="translate(160.000000, 72.000000)">
                <polygon id="Fill-1" fill="#000000" points="12.2192209 3.66848052 0 15.9721277 0 43.0262817 12.2192209 55.3322885 22.7996319 55.3322885 22.7996319 44.3298752 10.449853 44.3298752 10.449853 14.6710249 22.7996319 14.6710249 22.7996319 3.66848052"></polygon>
                <polygon id="Fill-2" fill="#000000" points="28.4652798 3.6684543 28.4652798 14.6709987 40.8150587 14.6709987 40.8150587 44.329849 28.4652798 44.329849 28.4652798 55.3323934 39.0456909 55.3323934 51.2647816 43.0287462 51.2647816 15.9745922 39.0456909 3.6684543"></polygon>
                <polygon id="Fill-3" fill="#000000" points="87.9711008 17.6084364 77.9440321 17.6084364 64.0386204 2.99177599 55.6597336 11.4398329 72.8353452 26.8648157 93.0771843 26.8648157 110.252926 11.4398329 101.876382 2.99177599"></polygon>
                <polygon id="Fill-4" fill="#000000" points="72.8353973 32.1269603 55.6597856 47.5543028 64.0385423 56 77.943954 41.3858303 87.9710227 41.3858303 101.876434 56 110.252848 47.5543028 93.0773665 32.1269603"></polygon>
                <polygon id="Fill-5" fill="#000000" points="146.537489 14.6767012 149.309668 14.6767012 149.309668 0.000131093476 146.537489 0.000131093476"></polygon>
                <path d="M155.321588,12.0910135 L160.847462,12.0910135 L160.847462,6.23991838 L155.321588,6.23991838 L155.321588,12.0910135 Z M159.271132,14.6820761 L161.16455,13.1383193 L162.066221,14.6820761 L163.591134,14.6820761 L163.591134,3.6613097 L155.220057,3.64898692 L152.610588,6.27649346 L152.610588,12.0539141 L155.220057,14.6820761 L159.271132,14.6820761 Z" id="Fill-6" fill="#000000"></path>
                <polygon id="Fill-7" fill="#000000" points="135.676788 14.669963 138.211151 10.8523899 138.475521 10.8523899 141.010014 14.669963 144.293752 14.669963 140.414888 9.12103837 144.249755 3.66125727 141.032013 3.66125727 138.475521 7.4343897 138.211151 7.4343897 135.65453 3.66125727 132.437048 3.66125727 136.271654 9.12103837 132.392921 14.669963"></polygon>
                <path d="M122.604358,12.0910135 L128.130232,12.0910135 L128.130232,6.23991838 L122.604358,6.23991838 L122.604358,12.0910135 Z M122.502827,3.64898692 L119.893358,6.27649346 L119.893358,12.0539141 L122.502827,14.6820761 L128.231763,14.6820761 L130.841362,12.0545695 L130.841362,6.27688675 L128.231763,3.64898692 L122.502827,3.64898692 Z" id="Fill-8" fill="#000000"></path>
                <g id="Group-32" transform="translate(0.000039, 0.000000)">
                    <path d="M124.912958,33.7713575 C122.699979,33.7713575 121.144347,32.1825046 121.144347,29.5125238 C121.144347,26.8425429 122.699979,25.2538211 124.912958,25.2538211 C127.169673,25.2538211 128.68157,26.9087451 128.68157,29.5125238 C128.68157,32.1163024 127.169673,33.7713575 124.912958,33.7713575 L124.912958,33.7713575 Z M130.346674,34.9848898 L130.346674,19.538801 L128.68157,19.538801 L128.68157,25.9158431 L128.418631,25.9158431 C127.805021,24.8567389 126.731529,23.7313014 124.51855,23.7313014 C121.670224,23.7313014 119.457375,26.0702713 119.457375,29.5125238 C119.457375,32.9549074 121.670224,35.2938772 124.51855,35.2938772 C126.731529,35.2938772 127.805021,34.1685708 128.418631,33.1093355 L128.725436,33.1093355 L128.725436,34.9848898 L130.346674,34.9848898 Z" id="Fill-9" fill="#000000"></path>
                    <mask id="mask-2" fill="white">
                        <use xlink:href="#path-1"></use>
                    </mask>
                    <g id="Clip-12"></g>
                    <polygon id="Fill-11" fill="#000000" mask="url(#mask-2)" points="133.85275 34.9849161 135.517854 34.9849161 135.517854 24.0401839 133.85275 24.0401839"></polygon>
                    <path d="M134.685354,22.296916 C135.496038,22.296916 136.131386,21.6790724 136.131386,20.8626222 C136.131386,20.0461721 135.496038,19.4284596 134.685354,19.4284596 C133.87467,19.4284596 133.239322,20.0461721 133.239322,20.8626222 C133.239322,21.6790724 133.87467,22.296916 134.685354,22.296916" id="Fill-13" fill="#000000" mask="url(#mask-2)"></path>
                    <path d="M148.182235,31.7633463 C148.182235,29.6891853 146.429528,29.0050085 143.953611,28.6519737 L142.945723,28.4975456 C141.631161,28.298939 140.469806,28.0561539 140.469806,26.8646453 C140.469806,25.7835174 141.477693,25.1655427 142.858121,25.1655427 C144.304152,25.1655427 145.706317,25.8495885 146.845674,27.460334 L148.138368,26.5778128 C146.517001,24.5918777 144.983367,23.731249 142.836122,23.731249 C140.645272,23.731249 138.804702,24.9007339 138.804702,26.886669 C138.804702,28.9167826 140.404071,29.6891853 142.74865,30.042089 L143.756407,30.1966482 C145.158572,30.3951237 146.495133,30.6379088 146.495133,31.8295485 C146.495133,32.9989023 145.31204,33.8153525 143.559203,33.8153525 C141.631161,33.8153525 140.184999,32.778272 139.483917,30.9909435 L137.97215,31.7633463 C138.760966,33.4624489 140.491804,35.2939558 143.515467,35.2939558 C146.297929,35.2939558 148.182235,33.8375073 148.182235,31.7633463" id="Fill-14" fill="#000000" mask="url(#mask-2)"></path>
                    <path d="M157.20976,33.5065487 L154.996911,33.5065487 C154.602373,33.5065487 154.427167,33.3079421 154.427167,32.8665504 L154.427167,25.5186299 L157.823239,25.5186299 L157.823239,24.0402888 L154.427167,24.0402888 L154.427167,20.3330964 L152.740065,20.3330964 L152.740065,24.0402888 L149.497331,24.0402888 L149.497331,25.5186299 L152.740065,25.5186299 L152.740065,33.2859184 C152.740065,34.3229989 153.397412,34.9848898 154.383301,34.9848898 L157.20976,34.9848898 L157.20976,33.5065487 Z" id="Fill-15" fill="#000000" mask="url(#mask-2)"></path>
                    <path d="M162.490255,25.650995 L162.227316,25.650995 L162.227316,24.0402494 L160.627817,24.0402494 L160.627817,34.9849816 L162.293051,34.9849816 L162.293051,28.2989521 C162.293051,26.5336474 163.213205,25.6289713 164.790836,25.6289713 L166.631276,25.6289713 L166.631276,23.9960709 L165.250849,23.9960709 C163.717214,23.9960709 162.884662,24.569736 162.490255,25.650995" id="Fill-16" fill="#000000" mask="url(#mask-2)"></path>
                    <path d="M170.619832,20.8626747 C170.619832,20.0462245 169.984354,19.4283809 169.1738,19.4283809 C168.363116,19.4283809 167.727638,20.0462245 167.727638,20.8626747 C167.727638,21.6791248 168.363116,22.2969684 169.1738,22.2969684 C169.984354,22.2969684 170.619832,21.6791248 170.619832,20.8626747" id="Fill-17" fill="#000000" mask="url(#mask-2)"></path>
                    <polygon id="Fill-18" fill="#000000" mask="url(#mask-2)" points="168.34104 34.9849161 170.006274 34.9849161 170.006274 24.0401839 168.34104 24.0401839"></polygon>
                    <path d="M179.274544,25.2538342 C181.509391,25.2538342 183.043155,26.842556 183.043155,29.5125369 C183.043155,32.1825177 181.509391,33.7713706 179.274544,33.7713706 C177.017698,33.7713706 175.505932,32.1163155 175.505932,29.5125369 C175.505932,26.9087582 177.017698,25.2538342 179.274544,25.2538342 L179.274544,25.2538342 Z M175.462196,33.1092175 L175.76887,33.1092175 C176.38248,34.1684528 177.455972,35.2938903 179.668951,35.2938903 C182.517278,35.2938903 184.730127,32.9549205 184.730127,29.5125369 C184.730127,26.0702844 182.517278,23.7313146 179.668951,23.7313146 C177.455972,23.7313146 176.38248,24.856621 175.76887,25.9158562 L175.505932,25.9158562 L175.505932,19.5388141 L173.840828,19.5388141 L173.840828,34.9849029 L175.462196,34.9849029 L175.462196,33.1092175 Z" id="Fill-19" fill="#000000" mask="url(#mask-2)"></path>
                    <path d="M195.335088,33.0652487 L195.335088,34.9849816 L196.978453,34.9849816 L196.978453,24.0402494 L195.291221,24.0402494 L195.291221,29.7552695 C195.291221,32.3150008 193.84532,33.6830923 191.741942,33.6830923 C189.879504,33.6830923 188.740147,32.6900592 188.740147,30.5937434 L188.740147,24.0402494 L187.074914,24.0402494 L187.074914,30.7483026 C187.074914,33.7271397 189.024954,35.1835882 191.281669,35.1835882 C193.450782,35.1835882 194.480538,34.1243529 195.028413,33.0652487 L195.335088,33.0652487 Z" id="Fill-20" fill="#000000" mask="url(#mask-2)"></path>
                    <path d="M203.946181,32.8666028 L203.946181,25.5186823 L207.342253,25.5186823 L207.342253,24.0402101 L203.946181,24.0402101 L203.946181,20.3330177 L202.259079,20.3330177 L202.259079,24.0402101 L199.016474,24.0402101 L199.016474,25.5186823 L202.259079,25.5186823 L202.259079,33.2858397 C202.259079,34.3229202 202.916425,34.9849423 203.902314,34.9849423 L206.728773,34.9849423 L206.728773,33.5066011 L204.515924,33.5066011 C204.121386,33.5066011 203.946181,33.3078634 203.946181,32.8666028" id="Fill-21" fill="#000000" mask="url(#mask-2)"></path>
                    <path d="M210.979668,28.6740761 C211.176872,26.4895344 212.622904,25.2316925 214.638679,25.2316925 C216.676322,25.2316925 218.100486,26.4895344 218.144352,28.6740761 L210.979668,28.6740761 Z M214.638679,23.7313277 C211.549412,23.7313277 209.226832,26.2025708 209.226832,29.4243241 C209.226832,32.7343033 211.439811,35.2939034 214.770148,35.2939034 C217.443139,35.2939034 218.757832,33.8154312 219.524649,32.4253159 L218.056619,31.6530443 C217.465007,32.8886003 216.500986,33.7934074 214.74828,33.7934074 C212.601036,33.7934074 211.111138,32.3591137 210.979668,30.0641913 L219.897058,30.0641913 L219.897058,29.1595152 C219.897058,25.9157383 217.706078,23.7313277 214.638679,23.7313277 L214.638679,23.7313277 Z" id="Fill-22" fill="#000000" mask="url(#mask-2)"></path>
                    <path d="M227.566324,33.7713575 C225.353345,33.7713575 223.797712,32.1825046 223.797712,29.5125238 C223.797712,26.8425429 225.353345,25.2538211 227.566324,25.2538211 C229.823039,25.2538211 231.334935,26.9087451 231.334935,29.5125238 C231.334935,32.1163024 229.823039,33.7713575 227.566324,33.7713575 L227.566324,33.7713575 Z M231.334935,19.538801 L231.334935,25.9158431 L231.071997,25.9158431 C230.458387,24.8567389 229.384765,23.7313014 227.171916,23.7313014 C224.323589,23.7313014 222.11061,26.0702713 222.11061,29.5125238 C222.11061,32.9549074 224.323589,35.2938772 227.171916,35.2938772 C229.384765,35.2938772 230.458387,34.1685708 231.071997,33.1093355 L231.378542,33.1093355 L231.378542,34.9848898 L232.999909,34.9848898 L232.999909,19.538801 L231.334935,19.538801 Z" id="Fill-23" fill="#000000" mask="url(#mask-2)"></path>
                    <path d="M124.951162,54.1081507 C122.722694,54.1081507 121.156257,52.5081548 121.156257,49.8195587 C121.156257,47.1308315 122.722694,45.5309667 124.951162,45.5309667 C127.223758,45.5309667 128.746068,47.197427 128.746068,49.8195587 C128.746068,52.4415593 127.223758,54.1081507 124.951162,54.1081507 L124.951162,54.1081507 Z M128.746068,46.1975771 L128.481307,46.1975771 C127.863532,45.1310005 126.78249,43.9978285 124.554021,43.9978285 C121.685779,43.9978285 119.45731,46.353185 119.45731,49.8195587 C119.45731,53.2859324 121.685779,55.64142 124.554021,55.64142 C126.78249,55.64142 127.863532,54.5079858 128.481307,53.4414093 L128.790325,53.4414093 L128.790325,55.3302041 L130.423017,55.3302041 L130.423017,39.775832 L128.746068,39.775832 L128.746068,46.1975771 Z" id="Fill-24" fill="#000000" mask="url(#mask-2)"></path>
                    <path d="M141.631708,50.3750018 C141.631708,52.641608 140.109268,54.196901 137.505786,54.196901 C135.939219,54.196901 134.96843,53.5081359 134.96843,52.3082373 C134.96843,51.1972201 135.939219,50.6416459 137.461659,50.5084549 L141.631708,50.1084887 L141.631708,50.3750018 Z M138.586958,43.9978285 C135.895092,43.9978285 134.196275,45.5754074 133.423991,47.2864395 L134.902304,47.9530498 C135.52008,46.5309478 136.62325,45.5309667 138.542831,45.5309667 C140.484411,45.5309667 141.631708,46.5531026 141.631708,48.1975391 L141.631708,48.7529822 L137.241025,49.1529484 C134.747795,49.3974377 133.269612,50.4417284 133.269612,52.352678 C133.269612,54.3303542 134.858178,55.64142 137.285152,55.64142 C139.646001,55.64142 140.837425,54.5079858 141.344949,53.4636952 L141.631708,53.4636952 L141.631708,55.3302041 L143.308526,55.3302041 L143.308526,48.2862894 C143.308526,45.6865747 141.499197,43.9978285 138.586958,43.9978285 L138.586958,43.9978285 Z" id="Fill-25" fill="#000000" mask="url(#mask-2)"></path>
                    <path d="M149.994402,40.5757513 L148.295585,40.5757513 L148.295585,44.3087691 L145.030201,44.3087691 L145.030201,45.7975978 L148.295585,45.7975978 L148.295585,53.61929 C148.295585,54.6635807 148.957487,55.330191 149.950275,55.330191 L152.796519,55.330191 L152.796519,53.8414935 L150.56805,53.8414935 C150.170909,53.8414935 149.994402,53.6414448 149.994402,53.1970379 L149.994402,45.7975978 L153.414294,45.7975978 L153.414294,44.3087691 L149.994402,44.3087691 L149.994402,40.5757513 Z" id="Fill-26" fill="#000000" mask="url(#mask-2)"></path>
                    <path d="M163.806444,50.3750018 C163.806444,52.641608 162.284004,54.196901 159.680523,54.196901 C158.113956,54.196901 157.143166,53.5081359 157.143166,52.3082373 C157.143166,51.1972201 158.113956,50.6416459 159.636396,50.5084549 L163.806444,50.1084887 L163.806444,50.3750018 Z M160.761694,43.9978285 C158.069829,43.9978285 156.371012,45.5754074 155.598728,47.2864395 L157.077041,47.9530498 C157.694816,46.5309478 158.797986,45.5309667 160.717568,45.5309667 C162.659147,45.5309667 163.806444,46.5531026 163.806444,48.1975391 L163.806444,48.7529822 L159.415762,49.1529484 C156.922532,49.3974377 155.444349,50.4417284 155.444349,52.352678 C155.444349,54.3303542 157.032914,55.64142 159.459888,55.64142 C161.820738,55.64142 163.012162,54.5079858 163.519685,53.4636952 L163.806444,53.4636952 L163.806444,55.3302041 L165.483263,55.3302041 L165.483263,48.2862894 C165.483263,45.6865747 163.674064,43.9978285 160.761694,43.9978285 L160.761694,43.9978285 Z" id="Fill-27" fill="#000000" mask="url(#mask-2)"></path>
                    <path d="M174.353415,54.1081507 C172.080819,54.1081507 170.55851,52.4415593 170.55851,49.8195587 C170.55851,47.197427 172.080819,45.5309667 174.353415,45.5309667 C176.604013,45.5309667 178.148321,47.1308315 178.148321,49.8195587 C178.148321,52.5081548 176.604013,54.1081507 174.353415,54.1081507 M174.750687,43.9978285 C172.522218,43.9978285 171.441046,45.1310005 170.823271,46.1975771 L170.55851,46.1975771 L170.55851,39.775832 L168.881561,39.775832 L168.881561,55.3302041 L170.514383,55.3302041 L170.514383,53.4414093 L170.823271,53.4414093 C171.441046,54.5079858 172.522218,55.64142 174.750687,55.64142 C177.618799,55.64142 179.847268,53.2859324 179.847268,49.8195587 C179.847268,46.353185 177.618799,43.9978285 174.750687,43.9978285" id="Fill-28" fill="#000000" mask="url(#mask-2)"></path>
                    <path d="M190.350073,50.3750018 C190.350073,52.641608 188.827633,54.196901 186.224151,54.196901 C184.657585,54.196901 183.686795,53.5081359 183.686795,52.3082373 C183.686795,51.1972201 184.657585,50.6416459 186.180025,50.5084549 L190.350073,50.1084887 L190.350073,50.3750018 Z M187.305323,43.9978285 C184.613458,43.9978285 182.914641,45.5754074 182.142357,47.2864395 L183.62067,47.9530498 C184.238445,46.5309478 185.341615,45.5309667 187.261196,45.5309667 C189.202776,45.5309667 190.350073,46.5531026 190.350073,48.1975391 L190.350073,48.7529822 L185.959391,49.1529484 C183.466161,49.3974377 181.987978,50.4417284 181.987978,52.352678 C181.987978,54.3303542 183.576543,55.64142 186.003517,55.64142 C188.364237,55.64142 189.555791,54.5079858 190.063314,53.4636952 L190.350073,53.4636952 L190.350073,55.3302041 L192.026892,55.3302041 L192.026892,48.2862894 C192.026892,45.6865747 190.217562,43.9978285 187.305323,43.9978285 L187.305323,43.9978285 Z" id="Fill-29" fill="#000000" mask="url(#mask-2)"></path>
                    <path d="M200.500046,48.9528866 L199.485129,48.7974098 C198.161325,48.5973611 196.9919,48.3528718 196.9919,47.1529732 C196.9919,46.064373 198.006816,45.4420723 199.396876,45.4420723 C200.85306,45.4420723 202.265118,46.1309685 203.412415,47.7529881 L204.714091,46.8641743 C203.081399,44.8643433 201.537091,43.9978154 199.374747,43.9978154 C197.168537,43.9978154 195.315081,45.1754281 195.315081,47.1752591 C195.315081,49.2195308 196.925775,49.9971773 199.286624,50.3528339 L200.30141,50.5084418 C201.713468,50.7083594 203.059401,50.9528487 203.059401,52.1527473 C203.059401,53.33036 201.867977,54.1524472 200.102905,54.1524472 C198.161325,54.1524472 196.70514,53.1081566 195.999112,51.3082431 L194.476672,52.0860207 C195.270954,53.7970528 197.014028,55.6414069 200.058778,55.6414069 C202.860765,55.6414069 204.758348,54.1747331 204.758348,52.0860207 C204.758348,49.9971773 202.993276,49.3084122 200.500046,48.9528866" id="Fill-30" fill="#000000" mask="url(#mask-2)"></path>
                    <path d="M208.597862,48.9751856 C208.796498,46.7754371 210.252552,45.5086808 212.282516,45.5086808 C214.334477,45.5086808 215.768533,46.7754371 215.81266,48.9751856 L208.597862,48.9751856 Z M212.282516,43.9978285 C209.171511,43.9978285 206.83266,46.486376 206.83266,49.7306773 C206.83266,53.0638601 209.061128,55.64142 212.414766,55.64142 C215.106631,55.64142 216.430436,54.1524603 217.20259,52.7526442 L215.724407,51.9749977 C215.12863,53.2192058 214.15784,54.1303055 212.392768,54.1303055 C210.230554,54.1303055 208.730242,52.6860487 208.597862,50.3750018 L217.577733,50.3750018 L217.577733,49.4640332 C217.577733,46.1975771 215.371392,43.9978285 212.282516,43.9978285 L212.282516,43.9978285 Z" id="Fill-31" fill="#000000" mask="url(#mask-2)"></path>
                </g>
            </g>
        </g>
    </g>
</svg>