<?xml version="1.0" standalone="no"?>
<!DOCTYPE svg PUBLIC "-//W3C//DTD SVG 20010904//EN"
 "http://www.w3.org/TR/2001/REC-SVG-20010904/DTD/svg10.dtd">
<svg version="1.0" xmlns="http://www.w3.org/2000/svg"
 width="524.000000pt" height="200.000000pt" viewBox="0 0 524.000000 200.000000"
 preserveAspectRatio="xMidYMid meet">

<g transform="translate(0.000000,200.000000) scale(0.100000,-0.100000)"
fill="#000000" stroke="none">
<path d="M3230 1060 l0 -940 130 0 130 0 0 940 0 940 -130 0 -130 0 0 -940z"/>
<path d="M605 1593 c-279 -62 -506 -278 -581 -553 -25 -90 -25 -290 0 -380 40
-148 136 -298 248 -390 77 -62 221 -135 306 -154 l62 -14 0 134 c0 107 -3 134
-14 134 -7 0 -46 16 -86 36 -203 102 -314 328 -269 546 30 144 136 279 270
343 40 19 79 35 86 35 10 0 13 32 13 135 0 74 -3 134 -7 134 -5 -1 -17 -3 -28
-6z"/>
<path d="M870 1465 c0 -117 2 -135 16 -135 37 0 149 -65 210 -122 49 -46 74
-81 107 -146 l42 -86 0 -125 c0 -125 0 -127 -37 -204 -51 -107 -128 -186 -231
-237 -44 -22 -86 -40 -93 -40 -11 0 -14 -27 -14 -135 l0 -135 28 6 c169 40
274 97 388 209 92 91 149 181 191 300 26 74 28 91 28 235 -1 141 -3 162 -28
235 -81 242 -288 435 -534 499 -33 9 -64 16 -67 16 -3 0 -6 -61 -6 -135z"/>
<path d="M4310 1580 c-41 -11 -113 -39 -159 -62 -191 -96 -363 -319 -396 -515
l-7 -43 131 0 c117 0 132 2 137 18 55 170 174 294 330 342 73 22 189 26 263 9
130 -30 256 -133 321 -261 22 -44 40 -87 40 -94 0 -11 27 -14 135 -14 l135 0
0 315 0 315 -125 0 -125 0 0 -90 c0 -49 -3 -90 -6 -90 -3 0 -24 16 -46 35 -59
50 -186 113 -274 135 -102 26 -251 26 -354 0z"/>
<path d="M1502 1580 c2 -6 116 -145 253 -310 l250 -299 269 2 270 2 253 300
c139 165 253 303 253 308 0 4 -74 7 -164 7 l-164 0 -168 -200 -168 -200 -112
0 -111 0 -168 200 -168 200 -164 0 c-108 0 -163 -4 -161 -10z"/>
<path d="M2014 732 c-18 -12 -514 -604 -514 -613 0 -5 74 -9 164 -9 l163 0
168 200 168 200 111 0 112 0 168 -200 168 -200 164 0 c90 0 164 4 164 8 0 7
-413 502 -491 590 l-29 32 -253 0 c-138 0 -257 -4 -263 -8z"/>
<path d="M3750 729 c0 -6 7 -38 15 -71 97 -374 486 -620 859 -543 123 26 228
75 324 152 l42 34 0 -95 0 -96 125 0 125 0 0 315 0 315 -133 0 -132 0 -19 -52
c-120 -339 -551 -438 -806 -187 -51 50 -110 148 -134 222 -5 15 -20 17 -136
17 -88 0 -130 -4 -130 -11z"/>
</g>
</svg>
