<?xml version="1.0" standalone="no"?>
<!DOCTYPE svg PUBLIC "-//W3C//DTD SVG 20010904//EN"
 "http://www.w3.org/TR/2001/REC-SVG-20010904/DTD/svg10.dtd">
<svg version="1.0" xmlns="http://www.w3.org/2000/svg"
 width="200.000000pt" height="200.000000pt" viewBox="0 0 200.000000 200.000000"
 preserveAspectRatio="xMidYMid meet">

<g transform="translate(0.000000,200.000000) scale(0.100000,-0.100000)"
fill="#000000" stroke="none">
<path d="M493 1351 c-101 -37 -172 -104 -221 -209 -22 -48 -27 -71 -27 -147 0
-78 4 -98 29 -152 47 -102 153 -191 259 -217 l27 -6 0 69 0 69 -32 7 c-19 5
-53 28 -83 59 -54 54 -75 105 -75 183 0 82 73 183 155 218 35 14 35 14 35 79
0 37 -3 66 -7 66 -5 -1 -31 -9 -60 -19z"/>
<path d="M680 1303 l1 -68 52 -25 c177 -85 177 -345 0 -430 l-52 -25 -1 -68
c0 -79 -3 -78 107 -26 78 37 153 118 184 197 30 79 30 195 0 274 -39 101 -160
208 -263 232 l-28 6 0 -67z"/>
<path d="M1036 1303 c26 -32 86 -102 132 -155 l83 -98 127 0 127 0 115 137
c163 194 156 173 58 173 l-83 0 -78 -95 -78 -95 -62 0 -62 0 -78 95 -78 95
-86 0 -85 0 48 -57z"/>
<path d="M1245 932 c-6 -4 -60 -65 -119 -137 -60 -71 -116 -138 -124 -147 -14
-17 -10 -18 70 -18 l85 0 83 100 84 100 52 0 52 0 84 -100 83 -99 83 -1 c66 0
81 3 75 13 -4 7 -62 77 -128 155 l-119 142 -126 0 c-69 0 -130 -4 -135 -8z"/>
</g>
</svg>
