<?xml version="1.0" standalone="no"?>
<!DOCTYPE svg PUBLIC "-//W3C//DTD SVG 20010904//EN"
 "http://www.w3.org/TR/2001/REC-SVG-20010904/DTD/svg10.dtd">
<svg version="1.0" xmlns="http://www.w3.org/2000/svg"
 width="152.000000pt" height="152.000000pt" viewBox="0 0 152.000000 152.000000"
 preserveAspectRatio="xMidYMid meet">

<g transform="translate(0.000000,152.000000) scale(0.100000,-0.100000)"
fill="#000000" stroke="none">
<path d="M374 1028 c-59 -19 -127 -80 -159 -142 -25 -49 -29 -70 -29 -130 1
-86 25 -143 87 -204 41 -40 138 -88 151 -75 3 4 6 26 6 50 0 39 -3 44 -32 57
-44 18 -93 73 -108 119 -26 84 20 188 99 223 40 17 41 19 41 66 0 52 -3 53
-56 36z"/>
<path d="M510 994 c0 -48 1 -50 42 -69 25 -12 55 -39 73 -64 26 -36 30 -52 30
-105 0 -53 -5 -69 -29 -104 -16 -24 -46 -50 -72 -63 -42 -20 -44 -23 -44 -64
0 -24 3 -46 8 -48 17 -11 111 36 150 74 62 62 86 120 86 204 0 137 -85 248
-216 280 -28 7 -28 7 -28 -41z"/>
<path d="M762 1028 c2 -6 44 -60 94 -119 l89 -108 100 -1 100 0 97 114 c53 63
94 117 91 120 -4 3 -30 6 -59 6 l-54 0 -62 -75 c-62 -73 -64 -74 -110 -75 -47
0 -48 1 -110 75 l-63 75 -58 0 c-40 0 -57 -4 -55 -12z"/>
<path d="M853 600 c-51 -60 -93 -112 -93 -115 0 -3 27 -5 60 -5 l60 0 62 75
c59 70 65 74 104 75 39 0 44 -4 104 -75 l63 -75 64 0 65 0 -24 28 c-12 15 -56
67 -97 115 l-73 87 -102 0 -101 0 -92 -110z"/>
</g>
</svg>
